<svg xmlns="http://www.w3.org/2000/svg" width="16" height="16" viewBox="0 0 16.062 16">
  <path fill="#386dff" d="M52.164,31.357L65.157,44.283a1.3,1.3,0,0,1,0,1.847l-0.464.462a1.317,1.317,0,0,1-1.856,0L49.843,33.666a1.3,1.3,0,0,1,0-1.847l0.464-.462A1.317,1.317,0,0,1,52.164,31.357Z" transform="translate(-49.469 -30.969)"/>
  <path fill="#386dff" d="M49.843,44.283L62.836,31.357a1.317,1.317,0,0,1,1.856,0l0.464,0.462a1.3,1.3,0,0,1,0,1.847L52.164,46.592a1.317,1.317,0,0,1-1.856,0l-0.464-.462A1.3,1.3,0,0,1,49.843,44.283Z" transform="translate(-49.469 -30.969)"/>
</svg>
